<?xml version="1.0" encoding="utf-8"?>
<!-- Generator: Adobe Illustrator 24.0.1, SVG Export Plug-In . SVG Version: 6.00 Build 0)  -->
<svg version="1.1" id="Layer_1" xmlns="http://www.w3.org/2000/svg" xmlns:xlink="http://www.w3.org/1999/xlink" x="0px" y="0px"
	 viewBox="0 0 1877.62 1590.1" style="enable-background:new 0 0 1877.62 1590.1;" xml:space="preserve">
<path d="M-353.6,731.69c0,0-125.56-5.32-148.97,23.41c0,0-27.67,54.27-28.73,101.09c0,0-9.58,56.4,28.73,76.61
	c0,0,27.67,28.73,106.41,27.67c0,0,78.74,4.26,110.67-18.09c0,0,26.6-7.45,26.6-56.4c0,0-5.32-104.28-29.79-130.88
	C-288.69,755.1-301.46,730.63-353.6,731.69z M-331.26,912.58c-24.47,0-55.33,6.38-55.33,6.38l-13.83,2.13l-13.83-2.13
	c-24.47,0-35.11-4.26-35.11-4.26c-26.6-3.19-35.11-14.9-35.11-14.9c-26.6-41.5,3.19-92.57,3.19-92.57
	c7.45-28.73,26.6-27.67,26.6-27.67c4.26-7.45,76.61-9.58,76.61-9.58c46.82-2.13,62.78,23.41,62.78,23.41
	c12.77,14.9,18.09,98.96,18.09,98.96C-302.52,909.39-331.26,912.58-331.26,912.58z M-63.11,1049.85c0,0-13.83-164.93-42.56-222.39
	c0,0-24.47-78.74-83-76.61l-6.38-8.51c0,0-32.99-100.02-119.18-123.43c0,0-91.51-45.76-148.97-11.71c0,0-69.17,25.54-123.43,217.07
	c0,0-32.99,130.88-30.86,230.91c0,0-8.51,160.68,1.06,281.98l1.06,46.82c0,0,10.64,24.47,34.05,25.54l4.26-3.19l121.31,1.06
	c0,0,17.02,0,18.09-13.83v-15.96c0,0,3.19-4.26,1.06-27.67v-17.02c0,0,4.26-54.27,2.13-96.83c0,0,4.26-20.22,29.79-23.41
	c0,0,38.31-5.32,47.88,4.26c0,0,13.83,4.26,18.09,24.47l7.45,118.11c0,0-7.45,36.18,13.83,41.5c0,0,11.7,17.02,26.6,2.13
	l152.16,1.06c0,0,20.22,7.45,21.28-14.9l-4.26-34.05l-11.71-189.41C-133.34,1165.83-63.11,1139.23-63.11,1049.85z M-165.26,1355.24
	l-7.45,3.19l-101.09,1.06c-18.09-3.19-11.7-24.47-11.7-24.47l-2.13-43.63c-1.06-39.37-6.38-63.85-6.38-63.85l-3.19-30.86
	c-10.64-43.63-47.88-36.18-47.88-36.18c-60.65-8.51-108.54,18.09-108.54,18.09c-29.8,18.09-25.54,57.46-25.54,57.46
	c-6.39,15.96-1.06,30.86-1.06,30.86c-9.58,15.96-1.06,35.11-1.06,35.11l-1.06,43.63c-1.06,18.09-18.09,11.7-18.09,11.7l-63.84,1.06
	c-19.15,2.13-14.9-25.54-14.9-25.54l1.06-234.1c2.13-104.28,24.47-223.46,24.47-223.46c18.09-134.07,92.58-216.01,92.58-216.01
	c29.79-40.43,118.11-2.13,118.11-2.13c104.28,32.99,121.31,130.88,121.31,130.88c21.28,68.1,42.56,270.28,42.56,270.28
	c3.19,13.83,13.83,288.37,13.83,288.37V1355.24z M-136.53,1109.44c0,0-13.48-173.8-21.28-214.95c0,0-17.03-85.84-21.99-91.51
	c0,0,5.68-12.06,16.32,3.55c0,0,40.43,57.46,51.78,168.13c0,0,7.8,68.1,7.8,89.38C-103.9,1064.04-118.79,1125.05-136.53,1109.44z"/>
<path d="M-63.11,1383.97c0,0-6.38,19.15,8.51,25.54c0,0,24.47,7.45,35.11-5.32l4.26-22.35l7.45-55.33l52.14-329.87l34.05-227.71
	c0,0,5.32-14.9,9.58,2.13l56.4,297.94l44.69,285.17l10.64,42.56c0,0,4.26,11.71,21.28,11.71l14.9,1.06c0,0,6.39-1.06,12.77-15.96
	l20.22-154.29l30.86-239.42l37.24-240.48c0,0,4.26-36.18,10.64-18.09l14.9,142.59l26.6,212.82l19.15,191.53l14.9,107.47
	c0,0,1.06,12.77,21.28,15.96c0,0,17.02,4.26,22.35-10.64l-11.71-122.37l-42.56-356.47l-32.99-255.38l-5.32-43.63
	c0,0-11.71-27.66-34.05-26.6c0,0-20.22,0-24.47,35.11l-40.44,252.19l-47.88,328.8l-2.13,28.73c0,0-4.26,36.18-9.58-15.96
	L177.38,989.2l-55.33-266.02c0,0,1.06-73.42-23.41-95.77c0,0,0-36.18-35.11-21.28c0,0-9.58,14.9-10.64,32.99L2.87,970.04
	l-58.52,355.4L-63.11,1383.97z"/>
<g>
	<path d="M748.79,796.6c0,0-24.47-135.14-77.68-178.77c0,0-55.33-46.82-101.09-10.64c0,0-52.14,54.27-58.52,167.06
		c0,0-13.83,197.92-8.51,238.35c0,0,1.06,213.88,38.31,305.39c0,0,14.9,84.06,93.64,92.57c0,0,47.88,5.32,74.48-79.81
		c0,0,39.37-141.52,46.82-273.47C756.24,1057.3,763.68,855.12,748.79,796.6z M706.22,1086.03c0,0-17.03,166-28.73,192.6
		c0,0-11.7,69.17-48.95,73.42c0,0-37.24,11.7-58.52-113.86c0,0-26.6-175.57-17.03-330.93c9.58-155.36,12.77-173.45,12.77-173.45
		s11.71-79.81,37.24-85.13c0,0,35.11-11.7,46.82,17.03c0,0,50.01,83,51.07,150.04C700.9,815.75,718.99,904.07,706.22,1086.03z"/>
</g>
<path d="M808.38,1376.52c0,0-3.19,17.02,0,24.47c0,0-1.06,5.32,15.96,8.51c0,0,23.41,5.32,32.99-6.38l1.06-9.58
	c0,0-5.32-157.48-6.39-243.67c-1.06-86.19-1.06-340.51-1.06-340.51v-96.83c0,0,1.06-14.9,7.45,9.58l97.89,385.2l27.67,123.43
	l36.18,136.2c0,0,6.38,40.44,22.35,43.63l26.6-2.13c0,0,5.32,6.38,9.58-12.77l7.45-145.78c0,0,10.64-185.15,4.26-271.34
	c0,0-4.26-190.47-4.26-221.33c0,0,0-78.74,3.19-122.37c0,0,11.71-34.05-24.47-38.31c0,0-25.54-1.06-23.41,56.4v121.31l6.39,103.22
	l1.06,92.57l-2.13,273.47c0,0-7.45,40.44-14.9-12.77l-39.37-168.13l-54.27-230.91l-54.27-184.09c0,0-9.58-53.2-48.95-44.69
	c0,0-26.6,0-29.79,38.31v195.79v277.73l2.13,134.07c0,0-3.19,67.04,1.06,83V1376.52z"/>
<path d="M1351.06,611.45c0,0,23.41,22.35-3.19,46.82c0,0,4.26,5.32-41.5-6.39c0,0-41.5-13.83-64.91,25.54
	c0,0-51.07,75.55-56.4,197.92c0,0-11.71,144.72-3.19,243.67c0,0,1.06,143.65,37.24,198.98c0,0,20.22,52.14,90.45,19.15
	c0,0,29.79,1.06,42.56-160.68l1.06-105.34c0,0-2.13-15.96,22.35-22.35l95.77-1.06c0,0,37.24-2.13,20.22,40.43
	c0,0-5.32,10.64-41.5,18.09l-48.95,1.06c0,0,4.26,158.55-24.47,223.46c0,0-29.8,74.48-98.96,80.87c0,0-80.87,0-107.47-81.93
	c0,0-37.24-78.74-35.11-237.29c0,0-3.19-177.7,10.64-284.11c0,0,12.77-105.34,60.65-170.25c0,0,22.35-47.88,101.09-41.5
	C1307.43,596.55,1341.48,598.68,1351.06,611.45z"/>
<path d="M1846.92,679.55c0,0-4.25-52.5,1.42-68.1c0,0,19.86-36.89,41.14,0l5.68,194.37c0,0,22.7,343.34,46.82,434.15
	c0,0,25.54,104.99,63.84,113.5c0,0,49.66,22.7,82.29-56.75c0,0,26.96-69.52,42.56-251.12l7.1-261.05c0,0,1.42-174.51,18.44-178.77
	c0,0,24.12-14.19,29.79,21.28l-2.84,147.55c0,0-8.51,232.68-7.1,270.99c0,0-14.19,211.4-52.49,283.76c0,0-24.12,102.15-141.88,69.52
	c0,0-85.13-34.05-102.15-238.35c0,0-25.54-256.8-29.8-327.74L1846.92,679.55z"/>
<path d="M2445.64,602.93c0,0,75.19,26.96,65.26,72.36c0,0-19.86,31.21-41.14,8.51c0,0-32.63-51.08-116.34-34.05
	c0,0-51.08,19.86-70.94,106.41c0,0-36.89,112.08,59.59,175.93c0,0,184.44,85.13,208.56,219.91c0,0,26.96,175.93-120.6,245.45
	c0,0-146.13,62.43-192.95-99.32c0,0-28.38-158.9-2.84-201.47c0,0,26.96-26.96,36.89,22.7c0,0-22.7,180.18,53.91,225.58
	c0,0,78.03,51.08,153.23-49.66c0,0,76.61-126.27-18.44-212.82c0,0-56.75-63.85-122.01-90.8c0,0-127.69-45.4-103.57-217.07
	c0,0,11.35-116.34,87.97-168.84C2322.21,605.77,2352,575.98,2445.64,602.93z"/>
</svg>
